<svg width="113" height="75" viewBox="0 0 113 75" fill="none" xmlns="http://www.w3.org/2000/svg">
<g clip-path="url(#clip0_2953_3071)">
<mask id="mask0_2953_3071" style="mask-type:luminance" maskUnits="userSpaceOnUse" x="0" y="0" width="113" height="75">
<path d="M62.3523 31.0801L57.4259 37.5018L63.2477 45.0878H61.2683L56.439 38.7905L51.6097 45.0878H49.6358L55.4576 37.5018L50.5341 31.0801H52.5079L56.4446 36.213L60.3812 31.0801H62.3523ZM34.9622 0.304688H83.9816L112.5 37.5018L83.9816 74.6989H29.0184L0.5 37.5018C10.0034 25.1009 19.5095 12.7019 29.0184 0.304688H34.9622ZM83.976 2.87391L63.8798 29.0861H61.9032L82.7673 1.87277H29.8168L29.0378 2.87391L2.47386 37.5018L29.024 72.1296L29.8861 73.1308H82.7673L69.7598 56.1694H71.7475L83.9899 72.1379L110.526 37.5018L83.976 2.87391Z" fill="white"/>
</mask>
<g mask="url(#mask0_2953_3071)">
<path d="M112.5 0.304688H0.5V74.6989H112.5V0.304688Z" fill="url(#paint0_linear_2953_3071)"/>
</g>
<path d="M18.5898 45.0043V31.0547H25.0936C26.5962 31.0547 27.5924 31.2833 28.0821 31.7406C28.5719 32.1978 28.8177 33.128 28.8195 34.531C28.8195 35.6124 28.6976 36.3701 28.4591 36.8016C28.3206 37.0305 28.136 37.2283 27.917 37.3825C27.698 37.5368 27.4493 37.644 27.1867 37.6976C27.9259 37.882 28.4407 38.2148 28.7308 38.696C29.021 39.1772 29.1661 39.9811 29.1661 41.1076C29.1661 42.6434 28.863 43.6768 28.2568 44.2078C27.6506 44.7388 26.4382 45.0043 24.6195 45.0043H18.5898ZM20.1091 37.0892H25.1491C25.9696 37.0892 26.5241 36.9426 26.8124 36.6495C27.1007 36.3563 27.2421 35.711 27.2366 34.7136C27.2366 33.7594 27.0841 33.1593 26.7847 32.9159C26.4853 32.6726 25.7174 32.5509 24.4837 32.5509H20.1091V37.0892ZM20.1091 43.5551H25.2045C26.1332 43.5551 26.7542 43.4113 27.073 43.1265C27.3918 42.8416 27.5526 42.106 27.5526 40.914C27.5526 39.9101 27.3752 39.2546 27.0176 38.9615C26.6599 38.6683 25.734 38.5162 24.2453 38.5162H20.1091V43.5551Z" fill="white"/>
<path d="M34.6367 35.6629C34.6367 33.8818 35.0064 32.641 35.7456 31.9404C36.4849 31.2398 37.7953 30.8886 39.6767 30.8867H41.4427C43.3444 30.8867 44.6594 31.2324 45.3876 31.9238C46.1158 32.6152 46.4854 33.8616 46.4965 35.6629V40.4059C46.4965 42.1924 46.1269 43.4351 45.3876 44.1339C44.6483 44.8326 43.3389 45.1829 41.4593 45.1848H39.6934C37.8101 45.1848 36.4997 44.8345 35.7623 44.1339C35.0248 43.4332 34.6552 42.1906 34.6534 40.4059L34.6367 35.6629ZM40.9825 32.3442H40.1175C39.4198 32.3194 38.7215 32.3723 38.0355 32.5018C37.6495 32.5985 37.2903 32.781 36.9848 33.0356C36.698 33.2894 36.495 33.624 36.4027 33.9952C36.2632 34.6783 36.2064 35.3756 36.2335 36.0722V40.0187C36.2061 40.7079 36.2629 41.3979 36.4027 42.0735C36.4957 42.4421 36.6987 42.7738 36.9848 43.0249C37.2889 43.2815 37.6486 43.4642 38.0355 43.5586C38.7212 43.6909 39.4197 43.7447 40.1175 43.719H40.9741C41.6757 43.7441 42.3778 43.6903 43.0672 43.5586C43.4571 43.4655 43.8198 43.2827 44.1262 43.0249C44.4 42.7785 44.5932 42.4557 44.6807 42.0984C44.8178 41.4141 44.8728 40.7159 44.8442 40.0187V36.0473C44.8716 35.3516 44.8148 34.6552 44.6751 33.9731C44.5833 33.6015 44.3814 33.2662 44.0957 33.0107C43.7921 32.761 43.4357 32.5833 43.0534 32.4908C42.3677 32.3662 41.6707 32.3152 40.9741 32.3386L40.9825 32.3442Z" fill="white"/>
<path d="M66.6367 35.6629C66.6367 33.8763 66.9796 32.6336 67.6652 31.9349C68.3509 31.2361 69.5605 30.8867 71.2941 30.8867H72.927C74.6458 30.8867 75.8536 31.1872 76.5504 31.7883C77.2471 32.3894 77.5937 33.4126 77.59 34.8581V35.4665H75.9959V35.0821C75.9959 34.0257 75.7797 33.3066 75.3472 32.9194C74.9147 32.5322 74.072 32.3386 72.8134 32.3386H71.746C71.1267 32.3172 70.5071 32.3682 69.8997 32.4908C69.5407 32.5818 69.2102 32.7604 68.9377 33.0107C68.6738 33.2644 68.4873 33.5876 68.3999 33.9427C68.2688 34.6361 68.2167 35.3422 68.2446 36.0473V40.0187C68.2168 40.7201 68.2689 41.4225 68.3999 42.1122C68.4863 42.4677 68.6729 42.7911 68.9377 43.0442C69.2015 43.2916 69.5224 43.4702 69.872 43.5641C70.4879 43.6926 71.1171 43.7465 71.746 43.7246H72.8244C74.1182 43.7246 74.9757 43.5217 75.3971 43.1161C75.8185 42.7105 76.031 41.9325 76.0347 40.782C76.0347 40.6077 76.0347 40.4722 76.0347 40.381C76.0347 40.2897 76.0347 40.1984 76.0209 40.1182H77.6066V41.0364C77.6066 42.5851 77.2702 43.6619 76.5975 44.2666C75.9248 44.8713 74.7068 45.1746 72.9436 45.1765H71.3108C69.5753 45.1765 68.3657 44.8262 67.6819 44.1256C66.998 43.4249 66.6497 42.185 66.6367 40.4059V35.6629Z" fill="white"/>
<path d="M82.8359 35.6629C82.8359 33.8818 83.2056 32.641 83.9448 31.9404C84.6841 31.2398 85.9954 30.8886 87.8787 30.8867H89.6419C91.5437 30.8867 92.8596 31.2324 93.5896 31.9238C94.3196 32.6152 94.6837 33.8616 94.6819 35.6629V40.4059C94.6819 42.1924 94.3122 43.4351 93.573 44.1339C92.8337 44.8326 91.5243 45.1829 89.6446 45.1848H87.8815C85.9963 45.1848 84.685 44.8345 83.9476 44.1339C83.2102 43.4332 82.8396 42.1906 82.8359 40.4059V35.6629ZM89.1789 32.3442H88.3167C87.6181 32.3194 86.9189 32.3723 86.232 32.5018C85.8461 32.5991 85.4871 32.7815 85.1813 33.0356C84.8965 33.2911 84.694 33.625 84.5991 33.9952C84.4611 34.6785 84.4043 35.3756 84.43 36.0722V40.0187C84.404 40.7079 84.4607 41.3977 84.5991 42.0735C84.6944 42.4412 84.897 42.7723 85.1813 43.0249C85.4857 43.281 85.8453 43.4637 86.232 43.5586C86.9185 43.6908 87.618 43.7446 88.3167 43.719H89.1789C89.8804 43.7442 90.5826 43.6904 91.272 43.5586C91.6627 43.4656 92.0263 43.2828 92.3338 43.0249C92.6117 42.7796 92.8097 42.4569 92.9021 42.0984C93.0378 41.4139 93.0927 40.7159 93.0656 40.0187V36.0473C93.093 35.3516 93.0362 34.6552 92.8965 33.9731C92.8037 33.6013 92.6009 33.2659 92.3144 33.0107C92.0111 32.7604 91.6546 32.5826 91.272 32.4908C90.5773 32.364 89.8708 32.313 89.165 32.3386L89.1789 32.3442Z" fill="white"/>
<path d="M35.1523 47.2773H35.984L37.6114 53.4308L39.2498 47.2773H40.3587L42.0082 53.4308L43.6355 47.2773H44.4672L42.5266 54.3904H41.5009L39.7959 48.1264L38.1325 54.3904H37.0819L35.1523 47.2773Z" fill="white"/>
<path d="M46.9336 49.6307C46.9336 48.7217 47.1184 48.0884 47.488 47.7307C47.8577 47.373 48.5267 47.1932 49.4952 47.1914H50.4017C51.372 47.1914 52.0438 47.3684 52.4172 47.7224C52.7905 48.0764 52.9753 48.7125 52.9716 49.6307V52.0422C52.9716 52.9641 52.7868 53.5983 52.4172 53.945C52.0475 54.2916 51.3757 54.4704 50.4017 54.4815H49.5035C48.5406 54.4815 47.8715 54.3026 47.4964 53.945C47.1212 53.5873 46.9364 52.953 46.9419 52.0422L46.9336 49.6307ZM50.1716 47.9326H49.7308C49.374 47.9196 49.0168 47.9475 48.6663 48.0155C48.4687 48.0649 48.2855 48.1596 48.1312 48.2921C47.9848 48.4214 47.8813 48.5922 47.8346 48.7816C47.7634 49.13 47.7345 49.4856 47.7486 49.8408V51.8569C47.7344 52.2085 47.7633 52.5605 47.8346 52.9051C47.8813 53.0938 47.9848 53.2636 48.1312 53.3918C48.2855 53.5244 48.4687 53.6191 48.6663 53.6684C49.0168 53.7365 49.374 53.7643 49.7308 53.7514H50.1716C50.5294 53.764 50.8874 53.7362 51.2389 53.6684C51.4384 53.6197 51.6235 53.525 51.7795 53.3918C51.9201 53.2654 52.0212 53.1012 52.0706 52.9189C52.1399 52.5694 52.1678 52.213 52.1538 51.8569V49.8325C52.1664 49.4773 52.1376 49.1219 52.0678 48.7733C52.0197 48.5838 51.9154 48.4132 51.7684 48.2838C51.6164 48.1511 51.4349 48.0563 51.2389 48.0073C50.887 47.9436 50.5291 47.9186 50.1716 47.9326Z" fill="white"/>
<path d="M56.0234 54.3904V47.2773H59.2393C60.0405 47.2773 60.5922 47.3935 60.9026 47.6313C61.2131 47.8692 61.3545 48.2923 61.3545 48.9007V49.9766C61.3725 50.2853 61.293 50.5919 61.1272 50.8532C61.0453 50.9629 60.9418 51.0548 60.8232 51.1233C60.7045 51.1917 60.573 51.2354 60.4369 51.2515C60.7225 51.2988 60.9782 51.4556 61.1494 51.6884C61.3092 51.9938 61.3803 52.3377 61.3545 52.6813V54.3904H60.5228V52.9247C60.5228 52.4158 60.4424 52.0701 60.2817 51.8903C60.1209 51.7106 59.8048 51.6138 59.3363 51.6138H56.808V54.3794L56.0234 54.3904ZM59.0729 48.0296H56.7997V50.8781H59.0729C59.669 50.8781 60.0571 50.8062 60.2401 50.6596C60.3427 50.5575 60.4209 50.4336 60.4689 50.2971C60.5169 50.1607 60.5334 50.0152 60.5173 49.8715V49.0418C60.5329 48.8973 60.5161 48.7511 60.4681 48.6138C60.4202 48.4766 60.3423 48.3516 60.2401 48.2481C60.0793 48.1043 59.6884 48.0296 59.0813 48.0296H59.0729Z" fill="white"/>
<path d="M64.4336 54.3904V47.2773H65.2098V53.6382H69.2518V54.3821L64.4336 54.3904Z" fill="white"/>
<path d="M71.8477 54.3904V47.2773H75.2908C76.1835 47.2773 76.8128 47.4516 77.1732 47.8056C77.5336 48.1596 77.7138 48.7763 77.7138 49.6557V52.0037C77.7138 52.8859 77.5336 53.5027 77.1593 53.8594C76.7851 54.2162 76.1696 54.3904 75.2797 54.3904H71.8477ZM72.6322 53.688H75.1605C75.8481 53.688 76.3083 53.5746 76.5467 53.3395C76.7851 53.1044 76.896 52.6647 76.896 52.012V49.7138C76.896 49.0243 76.7805 48.5633 76.5494 48.331C76.3184 48.0987 75.8564 47.9826 75.1633 47.9826H72.635L72.6322 53.688Z" fill="white"/>
</g>
<defs>
<linearGradient id="paint0_linear_2953_3071" x1="-4.10198" y1="41.2657" x2="113.876" y2="33.9015" gradientUnits="userSpaceOnUse">
<stop stop-color="#33C5F3"/>
<stop offset="1" stop-color="#A7BF38"/>
</linearGradient>
<clipPath id="clip0_2953_3071">
<rect width="112" height="74.3942" fill="white" transform="translate(0.5 0.304688)"/>
</clipPath>
</defs>
</svg>
